<svg width="45" height="50" viewBox="0 0 45 50" fill="none" xmlns="http://www.w3.org/2000/svg">
<path d="M32.1612 31.4465H30.1286L29.4082 30.6747C31.9297 27.4157 33.4477 23.1847 33.4477 18.582C33.4477 8.31904 25.9605 0 16.7238 0C7.48714 0 0 8.31904 0 18.582C0 28.8451 7.48714 37.1641 16.7238 37.1641C20.8662 37.1641 24.6741 35.4774 27.6072 32.6758L28.3019 33.4763V35.7347L41.1664 50L45 45.7404L32.1612 31.4465V31.4465ZM16.7238 31.4465C10.3173 31.4465 5.1458 25.7004 5.1458 18.582C5.1458 11.4637 10.3173 5.71755 16.7238 5.71755C23.1304 5.71755 28.3019 11.4637 28.3019 18.582C28.3019 25.7004 23.1304 31.4465 16.7238 31.4465Z" fill="black"/>
</svg>
